<?xml version="1.0" encoding="UTF-8"?>
<svg xmlns="http://www.w3.org/2000/svg" xmlns:xlink="http://www.w3.org/1999/xlink" width="2500px" height="2500px" viewBox="0 0 2500 2500" version="1.1">
<g id="surface1">
<path style=" stroke:none;fill-rule:evenodd;fill:rgb(0%,21.176471%,36.078431%);fill-opacity:1;" d="M 120 0 L 2380 0 C 2446 0 2500 46.296875 2500 102.878906 L 2500 2396.261719 C 2500 2452.847656 2446 2500 2380 2500 L 120 2500 C 54 2500 0 2452.847656 0 2396.261719 L 0 102.878906 C 0 46.296875 54 0 120 0 Z M 618 937.070312 C 633 800.753906 767 693.585938 930 693.585938 C 933 693.585938 936 693.585938 939 693.585938 C 954 557.269531 1088 450.960938 1250 450.960938 C 1412 450.960938 1546 557.269531 1561 693.585938 C 1564 693.585938 1567 693.585938 1570 693.585938 C 1733 693.585938 1867 800.753906 1882 937.070312 C 2036 953.359375 2155 1066.53125 2155 1202.847656 L 2071 1202.847656 C 2071 1094.820312 1969 1006.515625 1843 1006.515625 C 1717 1006.515625 1614 1094.820312 1614 1202.847656 L 1492 1202.847656 L 1492 1671.8125 L 1881 1671.8125 L 1881 1743.828125 L 1417 1743.828125 L 1408 1061.386719 C 1389 1045.953125 1367 1033.09375 1342 1023.664062 L 1342 1996.742188 L 1258 1996.742188 L 1258 1007.375 C 1253 1006.515625 1247 1006.515625 1242 1007.375 L 1242 1996.742188 L 1158 1996.742188 L 1158 1023.664062 C 1133 1033.09375 1111 1045.953125 1092 1061.386719 L 1083 1743.828125 L 619 1743.828125 L 619 1671.8125 L 1008 1671.8125 L 1008 1202.847656 L 886 1202.847656 C 886 1094.820312 783 1006.515625 657 1006.515625 C 531 1006.515625 429 1094.820312 429 1202.847656 L 345 1202.847656 C 345 1066.53125 464 953.359375 618 937.070312 Z M 1022 705.589844 C 1140 736.453125 1228 826.476562 1241 934.5 C 1247 934.5 1253 934.5 1259 934.5 C 1272 826.476562 1360 736.453125 1478 705.589844 C 1470 603.566406 1371 522.976562 1250 522.976562 C 1129 522.976562 1030 603.566406 1022 705.589844 Z M 954 1117.113281 C 986 1036.523438 1062 972.222656 1158 946.503906 C 1149 845.335938 1050 765.605469 930 765.605469 C 813 765.605469 716 841.050781 703 937.929688 C 820 952.503906 917 1023.664062 954 1117.113281 Z M 1342 946.503906 C 1438 972.222656 1514 1036.523438 1546 1117.113281 C 1583 1023.664062 1680 952.503906 1797 937.929688 C 1784 841.050781 1687 765.605469 1570 765.605469 C 1450 765.605469 1351 845.335938 1342 946.503906 Z M 431 2237.65625 L 431 2137.34375 L 463 2137.34375 L 463 2182.785156 L 500 2137.34375 L 537 2137.34375 L 494 2186.214844 L 541 2237.65625 L 501 2237.65625 L 463 2192.214844 L 463 2237.65625 Z M 411 740.742188 L 384 779.320312 L 208 688.441406 L 238 645.574219 C 250 628.429688 260 617.285156 266 611.28125 C 273 606.136719 280 601.851562 288 599.28125 C 297 596.707031 307 595.851562 317 596.707031 C 327 598.421875 337 601.851562 347 606.996094 C 358 612.140625 366 618.140625 372 625 C 378 631.859375 381 639.574219 383 648.148438 C 383 654.148438 383 661.007812 380 667.007812 C 378 673.867188 372 683.300781 363 696.160156 L 359 703.019531 L 353 710.734375 Z M 315 691.015625 L 320 683.300781 C 327 673.011719 330 665.296875 330 660.152344 C 329 654.148438 325 649.863281 318 645.574219 C 310 642.148438 304 641.289062 298 643.003906 C 292 645.574219 286 651.578125 279 661.007812 L 273 669.582031 Z M 484 648.148438 L 331 530.691406 L 415 450.960938 L 449 476.679688 L 401 522.121094 L 427 541.839844 L 472 498.972656 L 505 524.691406 L 460 567.558594 L 486 587.277344 L 534 541.839844 L 568 568.414062 Z M 592 543.554688 L 478 397.804688 L 522 372.085938 L 646 409.808594 C 648 410.664062 653 412.378906 659 414.953125 C 666 418.382812 673 421.8125 681 426.097656 C 676 420.953125 671 415.808594 667 411.523438 C 663 407.234375 659 402.949219 656 399.519531 L 599 327.503906 L 644 301.785156 L 759 447.53125 L 714 473.25 L 591 434.671875 C 588 433.8125 584 432.097656 577 429.527344 C 571 426.097656 563 422.667969 555 418.382812 C 561 424.382812 566 428.667969 570 433.8125 C 574 438.101562 578 442.386719 580 445.816406 L 637 517.832031 Z M 864 338.648438 L 850 303.496094 L 954 273.492188 C 955 274.347656 955 275.207031 956 276.921875 C 956 278.636719 957 280.351562 958 282.921875 C 970 311.214844 970 336.078125 959 357.511719 C 947 378.085938 926 393.519531 894 402.949219 C 878 408.09375 863 409.808594 849 409.808594 C 835 408.949219 822 406.378906 809 400.378906 C 797 395.234375 786 387.515625 776 378.945312 C 767 369.511719 760 358.367188 755 346.363281 C 750 334.363281 748 322.359375 749 310.355469 C 749 298.355469 753 286.351562 759 275.207031 C 766 264.917969 775 255.488281 786 246.914062 C 796 239.199219 809 233.195312 824 228.910156 C 843 222.90625 861 221.195312 878 223.765625 C 895 225.480469 911 231.480469 927 241.769531 L 888 274.347656 C 880 269.203125 872 265.773438 864 264.917969 C 856 264.058594 848 264.917969 839 267.488281 C 823 271.777344 813 280.351562 807 291.496094 C 802 303.496094 802 317.214844 808 332.648438 C 815 348.9375 824 360.082031 837 366.082031 C 850 372.941406 864 373.800781 880 368.65625 C 893 365.226562 904 358.367188 910 350.652344 C 917 342.078125 919 333.503906 917 323.214844 Z M 1070 291.496094 L 1125 284.636719 L 1093 229.765625 C 1092 228.050781 1091 225.480469 1089 222.050781 C 1087 217.765625 1085 213.476562 1082 207.476562 C 1082 211.761719 1081 216.050781 1081 220.335938 C 1080 223.765625 1080 228.050781 1079 231.480469 Z M 1004 366.941406 L 1042 184.328125 L 1111 174.898438 L 1214 338.648438 L 1159 346.363281 L 1143 316.359375 L 1064 327.503906 L 1059 360.082031 Z M 1259 342.933594 L 1261 263.203125 L 1191 166.324219 L 1255 167.179688 L 1282 212.621094 C 1282 213.476562 1282 213.476562 1283 214.335938 C 1285 218.621094 1287 223.765625 1288 228.050781 C 1289 223.765625 1291 219.480469 1295 215.191406 C 1295 214.335938 1296 213.476562 1296 212.621094 L 1324 168.039062 L 1388 168.894531 L 1315 264.058594 L 1313 343.792969 Z M 1621 305.210938 C 1617 318.074219 1611 328.359375 1603 338.648438 C 1594 348.078125 1584 355.796875 1571 362.65625 C 1559 368.65625 1545 372.085938 1531 374.65625 C 1516 376.371094 1502 375.515625 1488 372.085938 C 1474 369.511719 1461 364.367188 1449 356.652344 C 1437 349.792969 1428 340.363281 1420 330.074219 C 1413 319.789062 1408 307.785156 1406 295.78125 C 1403 283.777344 1404 271.777344 1408 259.773438 C 1411 247.769531 1417 236.625 1426 227.195312 C 1434 217.765625 1445 210.046875 1457 203.1875 C 1470 197.1875 1483 192.902344 1497 191.1875 C 1512 189.472656 1526 190.328125 1540 192.902344 C 1554 196.332031 1567 201.476562 1579 208.332031 C 1591 216.050781 1601 224.621094 1608 235.769531 C 1616 246.054688 1620 257.203125 1623 269.203125 C 1625 281.207031 1624 293.210938 1621 305.210938 Z M 1500 332.648438 C 1515 336.078125 1528 334.363281 1541 326.644531 C 1554 318.929688 1562 308.640625 1566 294.066406 C 1570 279.492188 1569 266.632812 1562 254.628906 C 1554 243.484375 1543 235.769531 1529 232.339844 C 1514 229.765625 1500 231.480469 1487 239.199219 C 1475 246.054688 1466 257.203125 1462 271.777344 C 1458 286.351562 1459 299.210938 1466 311.214844 C 1473 322.359375 1484 330.074219 1500 332.648438 Z M 1837 492.113281 L 1790 471.535156 L 1819 398.664062 C 1822 393.519531 1824 388.375 1827 382.375 C 1830 375.515625 1833 369.511719 1837 361.796875 C 1832 367.796875 1824 375.515625 1815 384.085938 C 1813 385.800781 1812 386.660156 1811 387.515625 L 1742 450.101562 L 1709 435.527344 L 1728 351.507812 C 1728 350.652344 1728 348.9375 1729 346.363281 C 1731 335.21875 1734 325.789062 1737 318.929688 C 1733 324.074219 1729 330.074219 1725 335.21875 C 1720 341.222656 1716 346.363281 1712 351.507812 L 1661 414.953125 L 1614 394.375 L 1736 250.34375 L 1785 271.777344 L 1765 364.367188 C 1765 365.226562 1764 366.082031 1764 367.796875 C 1762 376.371094 1760 383.230469 1758 388.375 C 1760 385.800781 1762 383.230469 1765 379.800781 C 1768 377.230469 1772 373.800781 1776 369.511719 L 1852 300.925781 L 1902 322.359375 Z M 1952 494.683594 L 1993 526.40625 L 2023 471.535156 C 2024 469.820312 2026 467.25 2028 463.820312 C 2030 460.390625 2033 455.246094 2037 450.101562 C 2032 452.675781 2028 454.390625 2024 456.960938 C 2020 459.535156 2016 461.25 2013 462.964844 Z M 1843 498.972656 L 2033 408.09375 L 2085 448.386719 L 2000 619.855469 L 1959 588.132812 L 1975 558.984375 L 1916 513.546875 L 1884 530.691406 Z M 2009 636.144531 L 2179 537.550781 L 2210 576.132812 L 2165 681.585938 C 2164 684.15625 2162 687.585938 2159 693.585938 C 2155 698.730469 2151 704.734375 2146 712.449219 C 2152 707.304688 2158 703.019531 2163 699.589844 C 2169 696.160156 2173 693.585938 2178 691.015625 L 2262 642.148438 L 2292 679.871094 L 2121 778.464844 L 2091 740.742188 L 2136 634.429688 C 2137 632.714844 2139 628.429688 2142 623.285156 C 2146 617.285156 2150 611.28125 2155 604.425781 C 2149 608.710938 2143 612.996094 2138 617.285156 C 2133 620.714844 2128 623.285156 2123 625.855469 L 2039 674.726562 Z M 153 2416.839844 L 153 2283.09375 L 195 2283.09375 L 195 2334.535156 L 250 2334.535156 L 250 2283.09375 L 292 2283.09375 L 292 2416.839844 L 250 2416.839844 L 250 2361.96875 L 195 2361.96875 L 195 2416.839844 Z M 318 2283.09375 L 360 2283.09375 L 360 2348.25 C 360 2357.683594 360 2364.539062 360 2368.828125 C 361 2372.257812 362 2376.542969 363 2379.113281 C 365 2382.542969 368 2385.117188 372 2386.832031 C 376 2388.546875 380 2389.402344 386 2389.402344 C 392 2389.402344 397 2388.546875 401 2386.832031 C 404 2385.117188 407 2382.542969 409 2379.113281 C 410 2376.542969 411 2372.257812 412 2368.828125 C 412 2364.539062 413 2357.683594 413 2348.25 L 413 2283.09375 L 454 2283.09375 L 454 2353.394531 C 454 2367.96875 453 2379.113281 451 2385.972656 C 449 2392.832031 445 2398.835938 441 2403.976562 C 435 2409.121094 428 2413.410156 419 2415.980469 C 410 2418.554688 399 2420.265625 386 2420.265625 C 373 2420.265625 362 2418.554688 353 2415.980469 C 344 2413.410156 337 2409.121094 331 2403.976562 C 327 2398.835938 323 2392.832031 321 2385.972656 C 319 2379.113281 318 2367.96875 318 2353.394531 Z M 481 2416.839844 L 481 2283.09375 L 522 2283.09375 L 522 2343.964844 L 570 2283.09375 L 618 2283.09375 L 562 2348.25 L 623 2416.839844 L 571 2416.839844 L 522 2356.824219 L 522 2416.839844 Z M 629 2283.09375 L 671 2283.09375 L 671 2348.25 C 671 2357.683594 671 2364.539062 672 2368.828125 C 672 2372.257812 673 2376.542969 674 2379.113281 C 676 2382.542969 679 2385.117188 683 2386.832031 C 687 2388.546875 692 2389.402344 697 2389.402344 C 703 2389.402344 708 2388.546875 712 2386.832031 C 716 2385.117188 718 2382.542969 720 2379.113281 C 721 2376.542969 722 2372.257812 723 2368.828125 C 723 2364.539062 724 2357.683594 724 2348.25 L 724 2283.09375 L 765 2283.09375 L 765 2353.394531 C 765 2367.96875 764 2379.113281 762 2385.972656 C 760 2392.832031 757 2398.835938 752 2403.976562 C 747 2409.121094 739 2413.410156 730 2415.980469 C 721 2418.554688 710 2420.265625 697 2420.265625 C 684 2420.265625 673 2418.554688 664 2415.980469 C 655 2413.410156 648 2409.121094 643 2403.976562 C 638 2398.835938 634 2392.832031 632 2385.972656 C 630 2379.113281 629 2367.96875 629 2353.394531 Z M 966 2416.839844 L 928 2416.839844 L 919 2358.539062 C 918 2355.109375 917 2349.964844 917 2344.820312 C 916 2340.535156 916 2334.535156 915 2328.53125 C 915 2334.535156 913 2341.390625 910 2349.964844 C 909 2351.679688 909 2353.394531 908 2354.253906 L 888 2416.839844 L 860 2416.839844 L 839 2354.253906 C 839 2353.394531 839 2351.679688 838 2349.964844 C 835 2341.390625 833 2334.535156 832 2329.390625 C 832 2333.675781 831 2338.820312 831 2343.964844 C 830 2349.109375 830 2354.253906 829 2358.539062 L 820 2416.839844 L 781 2416.839844 L 805 2283.09375 L 846 2283.09375 L 869 2351.679688 C 869 2352.539062 869 2353.394531 870 2354.253906 C 872 2360.253906 873 2365.398438 874 2369.683594 C 874 2367.96875 875 2365.398438 875 2361.96875 C 876 2359.394531 877 2355.96875 879 2351.679688 L 902 2283.09375 L 943 2283.09375 Z M 1051 2416.839844 L 1051 2283.09375 L 1082 2283.09375 C 1106 2283.09375 1123 2283.949219 1133 2285.664062 C 1142 2288.238281 1151 2290.808594 1158 2295.953125 C 1168 2301.953125 1175 2308.8125 1180 2318.246094 C 1185 2327.675781 1188 2337.964844 1188 2349.964844 C 1188 2361.96875 1185 2372.257812 1180 2381.6875 C 1175 2390.261719 1168 2397.976562 1158 2403.976562 C 1151 2408.265625 1143 2411.695312 1133 2413.410156 C 1124 2415.125 1109 2416.839844 1089 2416.839844 Z M 1092 2386.832031 L 1099 2386.832031 C 1115 2386.832031 1127 2383.402344 1134 2377.402344 C 1142 2372.257812 1146 2362.824219 1146 2349.964844 C 1146 2337.105469 1142 2327.675781 1134 2321.671875 C 1127 2315.671875 1115 2313.101562 1099 2313.101562 L 1092 2313.101562 Z M 1246 2366.253906 L 1287 2366.253906 L 1271 2322.53125 C 1271 2321.671875 1270 2319.101562 1269 2316.53125 C 1269 2313.101562 1268 2309.671875 1266 2304.527344 C 1265 2307.957031 1264 2311.386719 1264 2313.957031 C 1263 2317.386719 1262 2319.957031 1261 2322.53125 Z M 1187 2416.839844 L 1240 2283.09375 L 1292 2283.09375 L 1345 2416.839844 L 1303 2416.839844 L 1296 2392.832031 L 1237 2392.832031 L 1229 2416.839844 Z M 1354 2416.839844 L 1354 2283.09375 L 1395 2283.09375 L 1452 2351.679688 C 1453 2353.394531 1455 2355.96875 1458 2360.253906 C 1460 2364.539062 1463 2369.683594 1466 2374.828125 C 1465 2369.683594 1464 2364.539062 1464 2360.253906 C 1464 2355.96875 1464 2352.539062 1464 2349.109375 L 1464 2283.09375 L 1503 2283.09375 L 1503 2416.839844 L 1464 2416.839844 L 1406 2347.394531 C 1405 2346.535156 1403 2343.105469 1400 2338.820312 C 1398 2334.535156 1395 2330.246094 1392 2324.246094 C 1393 2330.246094 1394 2334.535156 1394 2338.820312 C 1394 2343.105469 1395 2347.394531 1395 2350.824219 L 1395 2416.839844 Z M 1598 2416.839844 L 1598 2283.09375 L 1639 2283.09375 L 1639 2334.535156 L 1695 2334.535156 L 1695 2283.09375 L 1736 2283.09375 L 1736 2416.839844 L 1695 2416.839844 L 1695 2361.96875 L 1639 2361.96875 L 1639 2416.839844 Z M 1804 2366.253906 L 1846 2366.253906 L 1830 2322.53125 C 1830 2321.671875 1829 2319.101562 1828 2316.53125 C 1827 2313.101562 1826 2309.671875 1825 2304.527344 C 1824 2307.957031 1823 2311.386719 1822 2313.957031 C 1821 2317.386719 1820 2319.957031 1820 2322.53125 Z M 1746 2416.839844 L 1799 2283.09375 L 1851 2283.09375 L 1903 2416.839844 L 1862 2416.839844 L 1854 2392.832031 L 1795 2392.832031 L 1787 2416.839844 Z M 2088 2416.839844 L 2049 2416.839844 L 2040 2358.539062 C 2039 2355.109375 2039 2349.964844 2038 2344.820312 C 2038 2340.535156 2037 2334.535156 2037 2328.53125 C 2036 2334.535156 2034 2341.390625 2031 2349.964844 C 2031 2351.679688 2030 2353.394531 2030 2354.253906 L 2009 2416.839844 L 1981 2416.839844 L 1961 2354.253906 C 1960 2353.394531 1960 2351.679688 1960 2349.964844 C 1957 2341.390625 1955 2334.535156 1954 2329.390625 C 1953 2333.675781 1953 2338.820312 1952 2343.964844 C 1952 2349.109375 1951 2354.253906 1950 2358.539062 L 1941 2416.839844 L 1903 2416.839844 L 1926 2283.09375 L 1967 2283.09375 L 1990 2351.679688 C 1991 2352.539062 1991 2353.394531 1991 2354.253906 C 1993 2360.253906 1995 2365.398438 1995 2369.683594 C 1996 2367.96875 1996 2365.398438 1997 2361.96875 C 1998 2359.394531 1999 2355.96875 2000 2351.679688 L 2023 2283.09375 L 2064 2283.09375 Z M 2172 2416.839844 L 2172 2283.09375 L 2215 2283.09375 C 2232 2283.09375 2244 2283.949219 2251 2284.808594 C 2258 2286.523438 2263 2289.09375 2268 2291.667969 C 2274 2295.953125 2278 2300.238281 2281 2306.242188 C 2284 2311.386719 2285 2317.386719 2285 2324.246094 C 2285 2334.535156 2282 2343.105469 2277 2349.964844 C 2271 2355.96875 2262 2360.253906 2251 2362.824219 L 2293 2416.839844 L 2246 2416.839844 L 2211 2364.539062 L 2211 2416.839844 Z M 2211 2346.535156 L 2219 2346.535156 C 2228 2346.535156 2234 2344.820312 2238 2342.25 C 2242 2339.675781 2244 2335.390625 2244 2329.390625 C 2244 2322.53125 2243 2318.246094 2239 2314.816406 C 2235 2312.242188 2228 2311.386719 2219 2311.386719 L 2211 2311.386719 Z M 2305 2416.839844 L 2305 2283.09375 L 2347 2283.09375 L 2347 2416.839844 Z M 596 2237.65625 L 596 2137.34375 L 668 2137.34375 L 668 2158.777344 L 627 2158.777344 L 627 2176.785156 L 665 2176.785156 L 665 2198.214844 L 627 2198.214844 L 627 2214.507812 L 668 2214.507812 L 668 2237.65625 Z M 869 2237.65625 L 840 2237.65625 L 833 2193.929688 C 832 2190.5 832 2187.070312 831 2183.640625 C 831 2180.210938 831 2175.925781 830 2171.640625 C 830 2175.925781 828 2181.070312 826 2187.070312 C 825 2188.785156 825 2189.644531 825 2190.5 L 809 2237.65625 L 788 2237.65625 L 772 2190.5 C 772 2189.644531 771 2188.785156 771 2187.070312 C 769 2181.070312 767 2175.925781 766 2171.640625 C 766 2175.070312 766 2179.355469 765 2182.785156 C 765 2186.214844 764 2190.5 764 2193.929688 L 757 2237.65625 L 727 2237.65625 L 745 2137.34375 L 777 2137.34375 L 795 2188.785156 C 795 2188.785156 795 2189.644531 795 2190.5 C 797 2194.789062 798 2199.074219 798 2202.503906 C 799 2200.789062 799 2198.214844 799 2196.503906 C 800 2193.929688 801 2191.359375 802 2188.785156 L 820 2137.34375 L 851 2137.34375 Z M 933 2237.65625 L 933 2137.34375 L 1005 2137.34375 L 1005 2158.777344 L 964 2158.777344 L 964 2176.785156 L 1002 2176.785156 L 1002 2198.214844 L 964 2198.214844 L 964 2214.507812 L 1005 2214.507812 L 1005 2237.65625 Z M 1072 2237.65625 L 1072 2137.34375 L 1103 2137.34375 L 1147 2188.785156 C 1148 2189.644531 1149 2191.359375 1151 2194.789062 C 1153 2198.214844 1155 2201.644531 1158 2205.933594 C 1157 2202.503906 1156 2198.214844 1156 2194.789062 C 1156 2192.214844 1156 2188.785156 1156 2186.214844 L 1156 2137.34375 L 1186 2137.34375 L 1186 2237.65625 L 1156 2237.65625 L 1112 2185.355469 C 1111 2184.5 1109 2182.785156 1107 2179.355469 C 1105 2175.925781 1103 2172.496094 1101 2168.210938 C 1102 2172.496094 1102 2175.925781 1102 2179.355469 C 1103 2182.785156 1103 2185.355469 1103 2187.929688 L 1103 2237.65625 Z M 1275 2237.65625 L 1275 2160.492188 L 1248 2160.492188 L 1248 2137.34375 L 1333 2137.34375 L 1333 2160.492188 L 1306 2160.492188 L 1306 2237.65625 Z M 1395 2237.65625 L 1395 2137.34375 L 1466 2137.34375 L 1466 2158.777344 L 1426 2158.777344 L 1426 2176.785156 L 1464 2176.785156 L 1464 2198.214844 L 1426 2198.214844 L 1426 2214.507812 L 1466 2214.507812 L 1466 2237.65625 Z M 1534 2237.65625 L 1534 2137.34375 L 1567 2137.34375 C 1580 2137.34375 1589 2137.34375 1594 2138.203125 C 1599 2139.917969 1604 2141.632812 1608 2143.347656 C 1612 2146.777344 1615 2150.207031 1617 2154.492188 C 1620 2158.777344 1621 2163.066406 1621 2168.210938 C 1621 2175.925781 1619 2182.785156 1614 2187.070312 C 1610 2192.214844 1603 2195.644531 1595 2196.503906 L 1626 2237.65625 L 1590 2237.65625 L 1564 2198.214844 L 1564 2237.65625 Z M 1564 2184.5 L 1570 2184.5 C 1576 2184.5 1581 2183.640625 1585 2181.070312 C 1588 2179.355469 1589 2175.925781 1589 2171.640625 C 1589 2167.351562 1588 2163.066406 1585 2161.351562 C 1582 2158.777344 1577 2157.921875 1570 2157.921875 L 1564 2157.921875 Z M 1686 2237.65625 L 1686 2137.34375 L 1718 2137.34375 L 1718 2237.65625 Z M 1821 2199.929688 L 1853 2199.929688 L 1841 2166.496094 C 1840 2165.636719 1840 2163.921875 1839 2162.207031 C 1839 2159.636719 1838 2157.066406 1837 2153.636719 C 1836 2155.351562 1835 2157.921875 1835 2160.492188 C 1834 2162.207031 1833 2164.78125 1833 2166.496094 Z M 1776 2237.65625 L 1817 2137.34375 L 1857 2137.34375 L 1897 2237.65625 L 1865 2237.65625 L 1859 2219.648438 L 1814 2219.648438 L 1808 2237.65625 Z M 1955 2237.65625 L 1955 2137.34375 L 1985 2137.34375 L 2030 2188.785156 C 2030 2189.644531 2032 2191.359375 2034 2194.789062 C 2036 2198.214844 2038 2201.644531 2040 2205.933594 C 2040 2202.503906 2039 2198.214844 2039 2194.789062 C 2038 2192.214844 2038 2188.785156 2038 2186.214844 L 2038 2137.34375 L 2069 2137.34375 L 2069 2237.65625 L 2038 2237.65625 L 1994 2185.355469 C 1993 2184.5 1992 2182.785156 1990 2179.355469 C 1988 2175.925781 1986 2172.496094 1984 2168.210938 C 1984 2172.496094 1985 2175.925781 1985 2179.355469 C 1985 2182.785156 1985 2185.355469 1985 2187.929688 L 1985 2237.65625 Z M 1955 2237.65625 "/>
<path style=" stroke:none;fill-rule:evenodd;fill:rgb(100%,100%,100%);fill-opacity:1;" d="M 431 2237.65625 L 431 2137.34375 L 463 2137.34375 L 463 2182.785156 L 500 2137.34375 L 537 2137.34375 L 494 2186.214844 L 541 2237.65625 L 501 2237.65625 L 463 2192.214844 L 463 2237.65625 Z M 411 740.742188 L 384 779.320312 L 208 688.441406 L 238 645.574219 C 250 628.429688 260 617.285156 266 611.28125 C 273 606.136719 280 601.851562 288 599.28125 C 297 596.707031 307 595.851562 317 596.707031 C 327 598.421875 337 601.851562 347 606.996094 C 358 612.140625 366 618.140625 372 625 C 378 631.859375 381 639.574219 383 648.148438 C 383 654.148438 383 661.007812 380 667.007812 C 378 673.867188 372 683.300781 363 696.160156 L 359 703.019531 L 353 710.734375 Z M 315 691.015625 L 320 683.300781 C 327 673.011719 330 665.296875 330 660.152344 C 329 654.148438 325 649.863281 318 645.574219 C 310 642.148438 304 641.289062 298 643.003906 C 292 645.574219 286 651.578125 279 661.007812 L 273 669.582031 Z M 484 648.148438 L 331 530.691406 L 415 450.960938 L 449 476.679688 L 401 522.121094 L 427 541.839844 L 472 498.972656 L 505 524.691406 L 460 567.558594 L 486 587.277344 L 534 541.839844 L 568 568.414062 Z M 592 543.554688 L 478 397.804688 L 522 372.085938 L 646 409.808594 C 648 410.664062 653 412.378906 659 414.953125 C 666 418.382812 673 421.8125 681 426.097656 C 676 420.953125 671 415.808594 667 411.523438 C 663 407.234375 659 402.949219 656 399.519531 L 599 327.503906 L 644 301.785156 L 759 447.53125 L 714 473.25 L 591 434.671875 C 588 433.8125 584 432.097656 577 429.527344 C 571 426.097656 563 422.667969 555 418.382812 C 561 424.382812 566 428.667969 570 433.8125 C 574 438.101562 578 442.386719 580 445.816406 L 637 517.832031 Z M 864 338.648438 L 850 303.496094 L 954 273.492188 C 955 274.347656 955 275.207031 956 276.921875 C 956 278.636719 957 280.351562 958 282.921875 C 970 311.214844 970 336.078125 959 357.511719 C 947 378.085938 926 393.519531 894 402.949219 C 878 408.09375 863 409.808594 849 409.808594 C 835 408.949219 822 406.378906 809 400.378906 C 797 395.234375 786 387.515625 776 378.945312 C 767 369.511719 760 358.367188 755 346.363281 C 750 334.363281 748 322.359375 749 310.355469 C 749 298.355469 753 286.351562 759 275.207031 C 766 264.917969 775 255.488281 786 246.914062 C 796 239.199219 809 233.195312 824 228.910156 C 843 222.90625 861 221.195312 878 223.765625 C 895 225.480469 911 231.480469 927 241.769531 L 888 274.347656 C 880 269.203125 872 265.773438 864 264.917969 C 856 264.058594 848 264.917969 839 267.488281 C 823 271.777344 813 280.351562 807 291.496094 C 802 303.496094 802 317.214844 808 332.648438 C 815 348.9375 824 360.082031 837 366.082031 C 850 372.941406 864 373.800781 880 368.65625 C 893 365.226562 904 358.367188 910 350.652344 C 917 342.078125 919 333.503906 917 323.214844 Z M 1070 291.496094 L 1125 284.636719 L 1093 229.765625 C 1092 228.050781 1091 225.480469 1089 222.050781 C 1087 217.765625 1085 213.476562 1082 207.476562 C 1082 211.761719 1081 216.050781 1081 220.335938 C 1080 223.765625 1080 228.050781 1079 231.480469 Z M 1004 366.941406 L 1042 184.328125 L 1111 174.898438 L 1214 338.648438 L 1159 346.363281 L 1143 316.359375 L 1064 327.503906 L 1059 360.082031 Z M 1259 342.933594 L 1261 263.203125 L 1191 166.324219 L 1255 167.179688 L 1282 212.621094 C 1282 213.476562 1282 213.476562 1283 214.335938 C 1285 218.621094 1287 223.765625 1288 228.050781 C 1289 223.765625 1291 219.480469 1295 215.191406 C 1295 214.335938 1296 213.476562 1296 212.621094 L 1324 168.039062 L 1388 168.894531 L 1315 264.058594 L 1313 343.792969 Z M 1621 305.210938 C 1617 318.074219 1611 328.359375 1603 338.648438 C 1594 348.078125 1584 355.796875 1571 362.65625 C 1559 368.65625 1545 372.085938 1531 374.65625 C 1516 376.371094 1502 375.515625 1488 372.085938 C 1474 369.511719 1461 364.367188 1449 356.652344 C 1437 349.792969 1428 340.363281 1420 330.074219 C 1413 319.789062 1408 307.785156 1406 295.78125 C 1403 283.777344 1404 271.777344 1408 259.773438 C 1411 247.769531 1417 236.625 1426 227.195312 C 1434 217.765625 1445 210.046875 1457 203.1875 C 1470 197.1875 1483 192.902344 1497 191.1875 C 1512 189.472656 1526 190.328125 1540 192.902344 C 1554 196.332031 1567 201.476562 1579 208.332031 C 1591 216.050781 1601 224.621094 1608 235.769531 C 1616 246.054688 1620 257.203125 1623 269.203125 C 1625 281.207031 1624 293.210938 1621 305.210938 Z M 1500 332.648438 C 1515 336.078125 1528 334.363281 1541 326.644531 C 1554 318.929688 1562 308.640625 1566 294.066406 C 1570 279.492188 1569 266.632812 1562 254.628906 C 1554 243.484375 1543 235.769531 1529 232.339844 C 1514 229.765625 1500 231.480469 1487 239.199219 C 1475 246.054688 1466 257.203125 1462 271.777344 C 1458 286.351562 1459 299.210938 1466 311.214844 C 1473 322.359375 1484 330.074219 1500 332.648438 Z M 1837 492.113281 L 1790 471.535156 L 1819 398.664062 C 1822 393.519531 1824 388.375 1827 382.375 C 1830 375.515625 1833 369.511719 1837 361.796875 C 1832 367.796875 1824 375.515625 1815 384.085938 C 1813 385.800781 1812 386.660156 1811 387.515625 L 1742 450.101562 L 1709 435.527344 L 1728 351.507812 C 1728 350.652344 1728 348.9375 1729 346.363281 C 1731 335.21875 1734 325.789062 1737 318.929688 C 1733 324.074219 1729 330.074219 1725 335.21875 C 1720 341.222656 1716 346.363281 1712 351.507812 L 1661 414.953125 L 1614 394.375 L 1736 250.34375 L 1785 271.777344 L 1765 364.367188 C 1765 365.226562 1764 366.082031 1764 367.796875 C 1762 376.371094 1760 383.230469 1758 388.375 C 1760 385.800781 1762 383.230469 1765 379.800781 C 1768 377.230469 1772 373.800781 1776 369.511719 L 1852 300.925781 L 1902 322.359375 Z M 1952 494.683594 L 1993 526.40625 L 2023 471.535156 C 2024 469.820312 2026 467.25 2028 463.820312 C 2030 460.390625 2033 455.246094 2037 450.101562 C 2032 452.675781 2028 454.390625 2024 456.960938 C 2020 459.535156 2016 461.25 2013 462.964844 Z M 1843 498.972656 L 2033 408.09375 L 2085 448.386719 L 2000 619.855469 L 1959 588.132812 L 1975 558.984375 L 1916 513.546875 L 1884 530.691406 Z M 2009 636.144531 L 2179 537.550781 L 2210 576.132812 L 2165 681.585938 C 2164 684.15625 2162 687.585938 2159 693.585938 C 2155 698.730469 2151 704.734375 2146 712.449219 C 2152 707.304688 2158 703.019531 2163 699.589844 C 2169 696.160156 2173 693.585938 2178 691.015625 L 2262 642.148438 L 2292 679.871094 L 2121 778.464844 L 2091 740.742188 L 2136 634.429688 C 2137 632.714844 2139 628.429688 2142 623.285156 C 2146 617.285156 2150 611.28125 2155 604.425781 C 2149 608.710938 2143 612.996094 2138 617.285156 C 2133 620.714844 2128 623.285156 2123 625.855469 L 2039 674.726562 Z M 153 2416.839844 L 153 2283.09375 L 195 2283.09375 L 195 2334.535156 L 250 2334.535156 L 250 2283.09375 L 292 2283.09375 L 292 2416.839844 L 250 2416.839844 L 250 2361.96875 L 195 2361.96875 L 195 2416.839844 Z M 318 2283.09375 L 360 2283.09375 L 360 2348.25 C 360 2357.683594 360 2364.539062 360 2368.828125 C 361 2372.257812 362 2376.542969 363 2379.113281 C 365 2382.542969 368 2385.117188 372 2386.832031 C 376 2388.546875 380 2389.402344 386 2389.402344 C 392 2389.402344 397 2388.546875 401 2386.832031 C 404 2385.117188 407 2382.542969 409 2379.113281 C 410 2376.542969 411 2372.257812 412 2368.828125 C 412 2364.539062 413 2357.683594 413 2348.25 L 413 2283.09375 L 454 2283.09375 L 454 2353.394531 C 454 2367.96875 453 2379.113281 451 2385.972656 C 449 2392.832031 445 2398.835938 441 2403.976562 C 435 2409.121094 428 2413.410156 419 2415.980469 C 410 2418.554688 399 2420.265625 386 2420.265625 C 373 2420.265625 362 2418.554688 353 2415.980469 C 344 2413.410156 337 2409.121094 331 2403.976562 C 327 2398.835938 323 2392.832031 321 2385.972656 C 319 2379.113281 318 2367.96875 318 2353.394531 Z M 481 2416.839844 L 481 2283.09375 L 522 2283.09375 L 522 2343.964844 L 570 2283.09375 L 618 2283.09375 L 562 2348.25 L 623 2416.839844 L 571 2416.839844 L 522 2356.824219 L 522 2416.839844 Z M 629 2283.09375 L 671 2283.09375 L 671 2348.25 C 671 2357.683594 671 2364.539062 672 2368.828125 C 672 2372.257812 673 2376.542969 674 2379.113281 C 676 2382.542969 679 2385.117188 683 2386.832031 C 687 2388.546875 692 2389.402344 697 2389.402344 C 703 2389.402344 708 2388.546875 712 2386.832031 C 716 2385.117188 718 2382.542969 720 2379.113281 C 721 2376.542969 722 2372.257812 723 2368.828125 C 723 2364.539062 724 2357.683594 724 2348.25 L 724 2283.09375 L 765 2283.09375 L 765 2353.394531 C 765 2367.96875 764 2379.113281 762 2385.972656 C 760 2392.832031 757 2398.835938 752 2403.976562 C 747 2409.121094 739 2413.410156 730 2415.980469 C 721 2418.554688 710 2420.265625 697 2420.265625 C 684 2420.265625 673 2418.554688 664 2415.980469 C 655 2413.410156 648 2409.121094 643 2403.976562 C 638 2398.835938 634 2392.832031 632 2385.972656 C 630 2379.113281 629 2367.96875 629 2353.394531 Z M 966 2416.839844 L 928 2416.839844 L 919 2358.539062 C 918 2355.109375 917 2349.964844 917 2344.820312 C 916 2340.535156 916 2334.535156 915 2328.53125 C 915 2334.535156 913 2341.390625 910 2349.964844 C 909 2351.679688 909 2353.394531 908 2354.253906 L 888 2416.839844 L 860 2416.839844 L 839 2354.253906 C 839 2353.394531 839 2351.679688 838 2349.964844 C 835 2341.390625 833 2334.535156 832 2329.390625 C 832 2333.675781 831 2338.820312 831 2343.964844 C 830 2349.109375 830 2354.253906 829 2358.539062 L 820 2416.839844 L 781 2416.839844 L 805 2283.09375 L 846 2283.09375 L 869 2351.679688 C 869 2352.539062 869 2353.394531 870 2354.253906 C 872 2360.253906 873 2365.398438 874 2369.683594 C 874 2367.96875 875 2365.398438 875 2361.96875 C 876 2359.394531 877 2355.96875 879 2351.679688 L 902 2283.09375 L 943 2283.09375 Z M 1051 2416.839844 L 1051 2283.09375 L 1082 2283.09375 C 1106 2283.09375 1123 2283.949219 1133 2285.664062 C 1142 2288.238281 1151 2290.808594 1158 2295.953125 C 1168 2301.953125 1175 2308.8125 1180 2318.246094 C 1185 2327.675781 1188 2337.964844 1188 2349.964844 C 1188 2361.96875 1185 2372.257812 1180 2381.6875 C 1175 2390.261719 1168 2397.976562 1158 2403.976562 C 1151 2408.265625 1143 2411.695312 1133 2413.410156 C 1124 2415.125 1109 2416.839844 1089 2416.839844 Z M 1092 2386.832031 L 1099 2386.832031 C 1115 2386.832031 1127 2383.402344 1134 2377.402344 C 1142 2372.257812 1146 2362.824219 1146 2349.964844 C 1146 2337.105469 1142 2327.675781 1134 2321.671875 C 1127 2315.671875 1115 2313.101562 1099 2313.101562 L 1092 2313.101562 Z M 1246 2366.253906 L 1287 2366.253906 L 1271 2322.53125 C 1271 2321.671875 1270 2319.101562 1269 2316.53125 C 1269 2313.101562 1268 2309.671875 1266 2304.527344 C 1265 2307.957031 1264 2311.386719 1264 2313.957031 C 1263 2317.386719 1262 2319.957031 1261 2322.53125 Z M 1187 2416.839844 L 1240 2283.09375 L 1292 2283.09375 L 1345 2416.839844 L 1303 2416.839844 L 1296 2392.832031 L 1237 2392.832031 L 1229 2416.839844 Z M 1354 2416.839844 L 1354 2283.09375 L 1395 2283.09375 L 1452 2351.679688 C 1453 2353.394531 1455 2355.96875 1458 2360.253906 C 1460 2364.539062 1463 2369.683594 1466 2374.828125 C 1465 2369.683594 1464 2364.539062 1464 2360.253906 C 1464 2355.96875 1464 2352.539062 1464 2349.109375 L 1464 2283.09375 L 1503 2283.09375 L 1503 2416.839844 L 1464 2416.839844 L 1406 2347.394531 C 1405 2346.535156 1403 2343.105469 1400 2338.820312 C 1398 2334.535156 1395 2330.246094 1392 2324.246094 C 1393 2330.246094 1394 2334.535156 1394 2338.820312 C 1394 2343.105469 1395 2347.394531 1395 2350.824219 L 1395 2416.839844 Z M 1598 2416.839844 L 1598 2283.09375 L 1639 2283.09375 L 1639 2334.535156 L 1695 2334.535156 L 1695 2283.09375 L 1736 2283.09375 L 1736 2416.839844 L 1695 2416.839844 L 1695 2361.96875 L 1639 2361.96875 L 1639 2416.839844 Z M 1804 2366.253906 L 1846 2366.253906 L 1830 2322.53125 C 1830 2321.671875 1829 2319.101562 1828 2316.53125 C 1827 2313.101562 1826 2309.671875 1825 2304.527344 C 1824 2307.957031 1823 2311.386719 1822 2313.957031 C 1821 2317.386719 1820 2319.957031 1820 2322.53125 Z M 1746 2416.839844 L 1799 2283.09375 L 1851 2283.09375 L 1903 2416.839844 L 1862 2416.839844 L 1854 2392.832031 L 1795 2392.832031 L 1787 2416.839844 Z M 2088 2416.839844 L 2049 2416.839844 L 2040 2358.539062 C 2039 2355.109375 2039 2349.964844 2038 2344.820312 C 2038 2340.535156 2037 2334.535156 2037 2328.53125 C 2036 2334.535156 2034 2341.390625 2031 2349.964844 C 2031 2351.679688 2030 2353.394531 2030 2354.253906 L 2009 2416.839844 L 1981 2416.839844 L 1961 2354.253906 C 1960 2353.394531 1960 2351.679688 1960 2349.964844 C 1957 2341.390625 1955 2334.535156 1954 2329.390625 C 1953 2333.675781 1953 2338.820312 1952 2343.964844 C 1952 2349.109375 1951 2354.253906 1950 2358.539062 L 1941 2416.839844 L 1903 2416.839844 L 1926 2283.09375 L 1967 2283.09375 L 1990 2351.679688 C 1991 2352.539062 1991 2353.394531 1991 2354.253906 C 1993 2360.253906 1995 2365.398438 1995 2369.683594 C 1996 2367.96875 1996 2365.398438 1997 2361.96875 C 1998 2359.394531 1999 2355.96875 2000 2351.679688 L 2023 2283.09375 L 2064 2283.09375 Z M 2172 2416.839844 L 2172 2283.09375 L 2215 2283.09375 C 2232 2283.09375 2244 2283.949219 2251 2284.808594 C 2258 2286.523438 2263 2289.09375 2268 2291.667969 C 2274 2295.953125 2278 2300.238281 2281 2306.242188 C 2284 2311.386719 2285 2317.386719 2285 2324.246094 C 2285 2334.535156 2282 2343.105469 2277 2349.964844 C 2271 2355.96875 2262 2360.253906 2251 2362.824219 L 2293 2416.839844 L 2246 2416.839844 L 2211 2364.539062 L 2211 2416.839844 Z M 2211 2346.535156 L 2219 2346.535156 C 2228 2346.535156 2234 2344.820312 2238 2342.25 C 2242 2339.675781 2244 2335.390625 2244 2329.390625 C 2244 2322.53125 2243 2318.246094 2239 2314.816406 C 2235 2312.242188 2228 2311.386719 2219 2311.386719 L 2211 2311.386719 Z M 2305 2416.839844 L 2305 2283.09375 L 2347 2283.09375 L 2347 2416.839844 Z M 596 2237.65625 L 596 2137.34375 L 668 2137.34375 L 668 2158.777344 L 627 2158.777344 L 627 2176.785156 L 665 2176.785156 L 665 2198.214844 L 627 2198.214844 L 627 2214.507812 L 668 2214.507812 L 668 2237.65625 Z M 869 2237.65625 L 840 2237.65625 L 833 2193.929688 C 832 2190.5 832 2187.070312 831 2183.640625 C 831 2180.210938 831 2175.925781 830 2171.640625 C 830 2175.925781 828 2181.070312 826 2187.070312 C 825 2188.785156 825 2189.644531 825 2190.5 L 809 2237.65625 L 788 2237.65625 L 772 2190.5 C 772 2189.644531 771 2188.785156 771 2187.070312 C 769 2181.070312 767 2175.925781 766 2171.640625 C 766 2175.070312 766 2179.355469 765 2182.785156 C 765 2186.214844 764 2190.5 764 2193.929688 L 757 2237.65625 L 727 2237.65625 L 745 2137.34375 L 777 2137.34375 L 795 2188.785156 C 795 2188.785156 795 2189.644531 795 2190.5 C 797 2194.789062 798 2199.074219 798 2202.503906 C 799 2200.789062 799 2198.214844 799 2196.503906 C 800 2193.929688 801 2191.359375 802 2188.785156 L 820 2137.34375 L 851 2137.34375 Z M 933 2237.65625 L 933 2137.34375 L 1005 2137.34375 L 1005 2158.777344 L 964 2158.777344 L 964 2176.785156 L 1002 2176.785156 L 1002 2198.214844 L 964 2198.214844 L 964 2214.507812 L 1005 2214.507812 L 1005 2237.65625 Z M 1072 2237.65625 L 1072 2137.34375 L 1103 2137.34375 L 1147 2188.785156 C 1148 2189.644531 1149 2191.359375 1151 2194.789062 C 1153 2198.214844 1155 2201.644531 1158 2205.933594 C 1157 2202.503906 1156 2198.214844 1156 2194.789062 C 1156 2192.214844 1156 2188.785156 1156 2186.214844 L 1156 2137.34375 L 1186 2137.34375 L 1186 2237.65625 L 1156 2237.65625 L 1112 2185.355469 C 1111 2184.5 1109 2182.785156 1107 2179.355469 C 1105 2175.925781 1103 2172.496094 1101 2168.210938 C 1102 2172.496094 1102 2175.925781 1102 2179.355469 C 1103 2182.785156 1103 2185.355469 1103 2187.929688 L 1103 2237.65625 Z M 1275 2237.65625 L 1275 2160.492188 L 1248 2160.492188 L 1248 2137.34375 L 1333 2137.34375 L 1333 2160.492188 L 1306 2160.492188 L 1306 2237.65625 Z M 1395 2237.65625 L 1395 2137.34375 L 1466 2137.34375 L 1466 2158.777344 L 1426 2158.777344 L 1426 2176.785156 L 1464 2176.785156 L 1464 2198.214844 L 1426 2198.214844 L 1426 2214.507812 L 1466 2214.507812 L 1466 2237.65625 Z M 1534 2237.65625 L 1534 2137.34375 L 1567 2137.34375 C 1580 2137.34375 1589 2137.34375 1594 2138.203125 C 1599 2139.917969 1604 2141.632812 1608 2143.347656 C 1612 2146.777344 1615 2150.207031 1617 2154.492188 C 1620 2158.777344 1621 2163.066406 1621 2168.210938 C 1621 2175.925781 1619 2182.785156 1614 2187.070312 C 1610 2192.214844 1603 2195.644531 1595 2196.503906 L 1626 2237.65625 L 1590 2237.65625 L 1564 2198.214844 L 1564 2237.65625 Z M 1564 2184.5 L 1570 2184.5 C 1576 2184.5 1581 2183.640625 1585 2181.070312 C 1588 2179.355469 1589 2175.925781 1589 2171.640625 C 1589 2167.351562 1588 2163.066406 1585 2161.351562 C 1582 2158.777344 1577 2157.921875 1570 2157.921875 L 1564 2157.921875 Z M 1686 2237.65625 L 1686 2137.34375 L 1718 2137.34375 L 1718 2237.65625 Z M 1821 2199.929688 L 1853 2199.929688 L 1841 2166.496094 C 1840 2165.636719 1840 2163.921875 1839 2162.207031 C 1839 2159.636719 1838 2157.066406 1837 2153.636719 C 1836 2155.351562 1835 2157.921875 1835 2160.492188 C 1834 2162.207031 1833 2164.78125 1833 2166.496094 Z M 1776 2237.65625 L 1817 2137.34375 L 1857 2137.34375 L 1897 2237.65625 L 1865 2237.65625 L 1859 2219.648438 L 1814 2219.648438 L 1808 2237.65625 Z M 1955 2237.65625 L 1955 2137.34375 L 1985 2137.34375 L 2030 2188.785156 C 2030 2189.644531 2032 2191.359375 2034 2194.789062 C 2036 2198.214844 2038 2201.644531 2040 2205.933594 C 2040 2202.503906 2039 2198.214844 2039 2194.789062 C 2038 2192.214844 2038 2188.785156 2038 2186.214844 L 2038 2137.34375 L 2069 2137.34375 L 2069 2237.65625 L 2038 2237.65625 L 1994 2185.355469 C 1993 2184.5 1992 2182.785156 1990 2179.355469 C 1988 2175.925781 1986 2172.496094 1984 2168.210938 C 1984 2172.496094 1985 2175.925781 1985 2179.355469 C 1985 2182.785156 1985 2185.355469 1985 2187.929688 L 1985 2237.65625 Z M 1955 2237.65625 "/>
<path style=" stroke:none;fill-rule:evenodd;fill:rgb(86.666667%,77.254902%,2.745098%);fill-opacity:1;" d="M 618 937.070312 C 633 800.753906 767 693.585938 930 693.585938 C 933 693.585938 936 693.585938 939 693.585938 C 954 557.269531 1088 450.960938 1250 450.960938 C 1412 450.960938 1546 557.269531 1561 693.585938 C 1564 693.585938 1567 693.585938 1570 693.585938 C 1733 693.585938 1867 800.753906 1882 937.070312 C 2036 953.359375 2155 1066.53125 2155 1202.847656 L 2071 1202.847656 C 2071 1094.820312 1969 1006.515625 1843 1006.515625 C 1717 1006.515625 1614 1094.820312 1614 1202.847656 L 1492 1202.847656 L 1492 1671.8125 L 1881 1671.8125 L 1881 1743.828125 L 1417 1743.828125 L 1408 1061.386719 C 1389 1045.953125 1367 1033.09375 1342 1023.664062 L 1342 1996.742188 L 1258 1996.742188 L 1258 1007.375 C 1253 1006.515625 1247 1006.515625 1242 1007.375 L 1242 1996.742188 L 1158 1996.742188 L 1158 1023.664062 C 1133 1033.09375 1111 1045.953125 1092 1061.386719 L 1083 1743.828125 L 619 1743.828125 L 619 1671.8125 L 1008 1671.8125 L 1008 1202.847656 L 886 1202.847656 C 886 1094.820312 783 1006.515625 657 1006.515625 C 531 1006.515625 429 1094.820312 429 1202.847656 L 345 1202.847656 C 345 1066.53125 464 953.359375 618 937.070312 Z M 1022 705.589844 C 1140 736.453125 1228 826.476562 1241 934.5 C 1247 934.5 1253 934.5 1259 934.5 C 1272 826.476562 1360 736.453125 1478 705.589844 C 1470 603.566406 1371 522.976562 1250 522.976562 C 1129 522.976562 1030 603.566406 1022 705.589844 Z M 954 1117.113281 C 986 1036.523438 1062 972.222656 1158 946.503906 C 1149 845.335938 1050 765.605469 930 765.605469 C 813 765.605469 716 841.050781 703 937.929688 C 820 952.503906 917 1023.664062 954 1117.113281 Z M 1342 946.503906 C 1438 972.222656 1514 1036.523438 1546 1117.113281 C 1583 1023.664062 1680 952.503906 1797 937.929688 C 1784 841.050781 1687 765.605469 1570 765.605469 C 1450 765.605469 1351 845.335938 1342 946.503906 Z M 1342 946.503906 "/>
</g>
</svg>
